<mxfile host="app.diagrams.net" modified="2023-12-04T04:13:11.569Z" agent="Mozilla/5.0 (Macintosh; Intel Mac OS X 10_15_7) AppleWebKit/537.36 (KHTML, like Gecko) Chrome/119.0.0.0 Safari/537.36" etag="XNeg9XI0BSphtB7UVoEi" version="22.1.5" type="github">
  <diagram name="Page-1" id="zidWxDZTBbv9Yz6WOGqk">
    <mxGraphModel dx="1418" dy="894" grid="1" gridSize="10" guides="1" tooltips="1" connect="1" arrows="1" fold="1" page="1" pageScale="1" pageWidth="2336" pageHeight="1654" math="0" shadow="0">
      <root>
        <mxCell id="0" />
        <mxCell id="1" parent="0" />
        <mxCell id="OQNPQIhbmYLAiWT2xSHp-117" style="edgeStyle=orthogonalEdgeStyle;rounded=0;orthogonalLoop=1;jettySize=auto;html=1;exitX=0;exitY=0.75;exitDx=0;exitDy=0;entryX=0.996;entryY=0.38;entryDx=0;entryDy=0;entryPerimeter=0;" parent="1" source="OQNPQIhbmYLAiWT2xSHp-4" target="OQNPQIhbmYLAiWT2xSHp-23" edge="1">
          <mxGeometry relative="1" as="geometry">
            <Array as="points">
              <mxPoint x="1660" y="600.9999999999999" />
              <mxPoint x="1660" y="612.9999999999999" />
            </Array>
          </mxGeometry>
        </mxCell>
        <mxCell id="OQNPQIhbmYLAiWT2xSHp-132" value="&lt;font style=&quot;font-size: 7px;&quot;&gt;&amp;nbsp;B -&amp;nbsp;&lt;/font&gt;" style="edgeLabel;html=1;align=center;verticalAlign=middle;resizable=0;points=[];" parent="OQNPQIhbmYLAiWT2xSHp-117" vertex="1" connectable="0">
          <mxGeometry x="0.6425" relative="1" as="geometry">
            <mxPoint x="1" y="-1" as="offset" />
          </mxGeometry>
        </mxCell>
        <mxCell id="OQNPQIhbmYLAiWT2xSHp-120" value="&lt;font style=&quot;font-size: 7px;&quot;&gt;GND&lt;/font&gt;" style="edgeLabel;html=1;align=center;verticalAlign=middle;resizable=0;points=[];" parent="OQNPQIhbmYLAiWT2xSHp-117" vertex="1" connectable="0">
          <mxGeometry x="-0.5706" relative="1" as="geometry">
            <mxPoint x="-1" y="-2" as="offset" />
          </mxGeometry>
        </mxCell>
        <mxCell id="OQNPQIhbmYLAiWT2xSHp-127" style="edgeStyle=orthogonalEdgeStyle;rounded=0;orthogonalLoop=1;jettySize=auto;html=1;exitX=0;exitY=0.75;exitDx=0;exitDy=0;entryX=1.001;entryY=0.302;entryDx=0;entryDy=0;endArrow=none;endFill=0;entryPerimeter=0;" parent="1" source="OQNPQIhbmYLAiWT2xSHp-23" target="OQNPQIhbmYLAiWT2xSHp-18" edge="1">
          <mxGeometry relative="1" as="geometry">
            <Array as="points">
              <mxPoint x="1389" y="652.9999999999999" />
            </Array>
          </mxGeometry>
        </mxCell>
        <mxCell id="OQNPQIhbmYLAiWT2xSHp-128" value="&lt;font style=&quot;font-size: 7px;&quot;&gt;GND&lt;/font&gt;" style="edgeLabel;html=1;align=center;verticalAlign=middle;resizable=0;points=[];" parent="OQNPQIhbmYLAiWT2xSHp-127" vertex="1" connectable="0">
          <mxGeometry x="-0.267" relative="1" as="geometry">
            <mxPoint x="-5" y="-1" as="offset" />
          </mxGeometry>
        </mxCell>
        <mxCell id="OQNPQIhbmYLAiWT2xSHp-4" value="Power Supply&lt;br style=&quot;border-color: var(--border-color); font-size: 9px;&quot;&gt;&lt;span style=&quot;font-size: 9px;&quot;&gt;16V DC 10A&lt;/span&gt;&lt;br style=&quot;border-color: var(--border-color); font-size: 9px;&quot;&gt;Power" style="rounded=1;whiteSpace=wrap;html=1;fillColor=#f8cecc;strokeColor=#b85450;align=right;fontSize=9;" parent="1" vertex="1">
          <mxGeometry x="1700" y="572.2499999999999" width="120" height="38" as="geometry" />
        </mxCell>
        <mxCell id="OQNPQIhbmYLAiWT2xSHp-6" value="Motor 1" style="rounded=1;whiteSpace=wrap;html=1;fillColor=#d5e8d4;strokeColor=#82b366;fontSize=9;" parent="1" vertex="1">
          <mxGeometry x="1684" y="629.9999999999999" width="66" height="35" as="geometry" />
        </mxCell>
        <mxCell id="OQNPQIhbmYLAiWT2xSHp-100" style="edgeStyle=orthogonalEdgeStyle;rounded=0;orthogonalLoop=1;jettySize=auto;html=1;exitX=0;exitY=0.5;exitDx=0;exitDy=0;fillColor=#fff2cc;strokeColor=#d6b656;" parent="1" source="OQNPQIhbmYLAiWT2xSHp-9" target="OQNPQIhbmYLAiWT2xSHp-18" edge="1">
          <mxGeometry relative="1" as="geometry">
            <Array as="points">
              <mxPoint x="1684" y="705.9999999999999" />
            </Array>
          </mxGeometry>
        </mxCell>
        <mxCell id="OQNPQIhbmYLAiWT2xSHp-104" value="&lt;font style=&quot;font-size: 7px;&quot;&gt;GPIO 18&amp;nbsp;&lt;/font&gt;" style="edgeLabel;html=1;align=center;verticalAlign=middle;resizable=0;points=[];" parent="OQNPQIhbmYLAiWT2xSHp-100" vertex="1" connectable="0">
          <mxGeometry x="0.8885" y="-1" relative="1" as="geometry">
            <mxPoint x="9" y="-1" as="offset" />
          </mxGeometry>
        </mxCell>
        <mxCell id="OQNPQIhbmYLAiWT2xSHp-108" value="&lt;font style=&quot;font-size: 7px;&quot;&gt;CHB1 (Encoder Pulse B)&lt;/font&gt;" style="edgeLabel;html=1;align=center;verticalAlign=middle;resizable=0;points=[];" parent="OQNPQIhbmYLAiWT2xSHp-100" vertex="1" connectable="0">
          <mxGeometry x="-0.7916" relative="1" as="geometry">
            <mxPoint x="-18" y="-1" as="offset" />
          </mxGeometry>
        </mxCell>
        <mxCell id="OQNPQIhbmYLAiWT2xSHp-130" style="edgeStyle=orthogonalEdgeStyle;rounded=0;orthogonalLoop=1;jettySize=auto;html=1;exitX=0;exitY=0.25;exitDx=0;exitDy=0;endArrow=none;endFill=0;" parent="1" source="OQNPQIhbmYLAiWT2xSHp-9" edge="1">
          <mxGeometry relative="1" as="geometry">
            <mxPoint x="1390" y="688.9999999999999" as="targetPoint" />
          </mxGeometry>
        </mxCell>
        <mxCell id="OQNPQIhbmYLAiWT2xSHp-131" value="&lt;font style=&quot;font-size: 7px;&quot;&gt;GND&lt;/font&gt;" style="edgeLabel;html=1;align=center;verticalAlign=middle;resizable=0;points=[];" parent="OQNPQIhbmYLAiWT2xSHp-130" vertex="1" connectable="0">
          <mxGeometry x="0.6144" y="-1" relative="1" as="geometry">
            <mxPoint x="5" y="-1" as="offset" />
          </mxGeometry>
        </mxCell>
        <mxCell id="OQNPQIhbmYLAiWT2xSHp-9" value="Encoder" style="rounded=1;whiteSpace=wrap;html=1;fillColor=#fff2cc;strokeColor=#d6b656;fontSize=9;" parent="1" vertex="1">
          <mxGeometry x="1684" y="664.9999999999999" width="66" height="95" as="geometry" />
        </mxCell>
        <mxCell id="OQNPQIhbmYLAiWT2xSHp-84" style="edgeStyle=orthogonalEdgeStyle;rounded=0;orthogonalLoop=1;jettySize=auto;html=1;exitX=1;exitY=0.75;exitDx=0;exitDy=0;entryX=0;entryY=0.75;entryDx=0;entryDy=0;fillColor=#f8cecc;strokeColor=#000000;" parent="1" source="OQNPQIhbmYLAiWT2xSHp-23" target="OQNPQIhbmYLAiWT2xSHp-6" edge="1">
          <mxGeometry relative="1" as="geometry">
            <Array as="points">
              <mxPoint x="1620" y="655.9999999999999" />
            </Array>
          </mxGeometry>
        </mxCell>
        <mxCell id="OQNPQIhbmYLAiWT2xSHp-87" value="&lt;font style=&quot;font-size: 7px;&quot;&gt;&amp;nbsp;M -&amp;nbsp;&lt;/font&gt;" style="edgeLabel;html=1;align=center;verticalAlign=middle;resizable=0;points=[];" parent="OQNPQIhbmYLAiWT2xSHp-84" vertex="1" connectable="0">
          <mxGeometry x="-0.3712" relative="1" as="geometry">
            <mxPoint x="-6" y="-2" as="offset" />
          </mxGeometry>
        </mxCell>
        <mxCell id="OQNPQIhbmYLAiWT2xSHp-85" style="edgeStyle=orthogonalEdgeStyle;rounded=0;orthogonalLoop=1;jettySize=auto;html=1;exitX=1;exitY=0.5;exitDx=0;exitDy=0;entryX=0;entryY=0.5;entryDx=0;entryDy=0;fillColor=#f8cecc;strokeColor=#b85450;" parent="1" source="OQNPQIhbmYLAiWT2xSHp-23" target="OQNPQIhbmYLAiWT2xSHp-6" edge="1">
          <mxGeometry relative="1" as="geometry">
            <Array as="points">
              <mxPoint x="1620" y="646.9999999999999" />
            </Array>
          </mxGeometry>
        </mxCell>
        <mxCell id="OQNPQIhbmYLAiWT2xSHp-86" value="&lt;font style=&quot;font-size: 7px;&quot;&gt;&amp;nbsp;M +&amp;nbsp;&lt;/font&gt;" style="edgeLabel;html=1;align=center;verticalAlign=middle;resizable=0;points=[];" parent="OQNPQIhbmYLAiWT2xSHp-85" vertex="1" connectable="0">
          <mxGeometry x="-0.0845" relative="1" as="geometry">
            <mxPoint x="-6" y="-3" as="offset" />
          </mxGeometry>
        </mxCell>
        <mxCell id="OQNPQIhbmYLAiWT2xSHp-23" value="Motor Driver&lt;br style=&quot;font-size: 9px;&quot;&gt;&lt;b&gt;IBT_2&lt;/b&gt;" style="rounded=1;whiteSpace=wrap;html=1;fillColor=#dae8fc;strokeColor=#6c8ebf;fontSize=9;" parent="1" vertex="1">
          <mxGeometry x="1514" y="572.2499999999999" width="106" height="107.75" as="geometry" />
        </mxCell>
        <mxCell id="OQNPQIhbmYLAiWT2xSHp-34" style="edgeStyle=orthogonalEdgeStyle;rounded=0;orthogonalLoop=1;jettySize=auto;html=1;entryX=0.983;entryY=0.608;entryDx=0;entryDy=0;entryPerimeter=0;" parent="1" target="OQNPQIhbmYLAiWT2xSHp-5" edge="1">
          <mxGeometry relative="1" as="geometry">
            <mxPoint x="2010" y="539.9999999999999" as="targetPoint" />
            <Array as="points">
              <mxPoint x="1880" y="539.9999999999999" />
              <mxPoint x="1880" y="708.9999999999999" />
            </Array>
            <mxPoint x="1820" y="549.9999999999999" as="sourcePoint" />
          </mxGeometry>
        </mxCell>
        <mxCell id="OQNPQIhbmYLAiWT2xSHp-122" value="&lt;font style=&quot;font-size: 7px;&quot;&gt;GND&lt;/font&gt;" style="edgeLabel;html=1;align=center;verticalAlign=middle;resizable=0;points=[];" parent="OQNPQIhbmYLAiWT2xSHp-34" vertex="1" connectable="0">
          <mxGeometry x="0.722" relative="1" as="geometry">
            <mxPoint x="-9" y="-1" as="offset" />
          </mxGeometry>
        </mxCell>
        <mxCell id="OQNPQIhbmYLAiWT2xSHp-32" value="Festo Power Supply&lt;br style=&quot;border-color: var(--border-color); font-size: 9px;&quot;&gt;&lt;span style=&quot;font-size: 9px;&quot;&gt;24V DC 4A&lt;/span&gt;&lt;br style=&quot;border-color: var(--border-color); font-size: 9px;&quot;&gt;&lt;span style=&quot;font-size: 9px;&quot;&gt;Motor Relay Enable&lt;/span&gt;" style="rounded=1;whiteSpace=wrap;html=1;fillColor=#f8cecc;strokeColor=#b85450;align=right;fontSize=9;" parent="1" vertex="1">
          <mxGeometry x="1700" y="519.9999999999999" width="120" height="38" as="geometry" />
        </mxCell>
        <mxCell id="pYpoy-xko2efmzYNH34E-1" style="edgeStyle=orthogonalEdgeStyle;rounded=0;orthogonalLoop=1;jettySize=auto;html=1;exitX=1;exitY=0.25;exitDx=0;exitDy=0;entryX=0.25;entryY=1;entryDx=0;entryDy=0;fillColor=#f8cecc;strokeColor=#b85450;" parent="1" source="OQNPQIhbmYLAiWT2xSHp-33" target="OQNPQIhbmYLAiWT2xSHp-9" edge="1">
          <mxGeometry relative="1" as="geometry" />
        </mxCell>
        <mxCell id="pYpoy-xko2efmzYNH34E-2" value="&lt;font style=&quot;font-size: 7px;&quot;&gt;5V DC&lt;/font&gt;" style="edgeLabel;html=1;align=center;verticalAlign=middle;resizable=0;points=[];" parent="pYpoy-xko2efmzYNH34E-1" vertex="1" connectable="0">
          <mxGeometry x="0.0203" relative="1" as="geometry">
            <mxPoint y="-2" as="offset" />
          </mxGeometry>
        </mxCell>
        <mxCell id="OQNPQIhbmYLAiWT2xSHp-33" value="Power Supply&lt;br style=&quot;border-color: var(--border-color); font-size: 9px;&quot;&gt;&lt;span style=&quot;font-size: 9px;&quot;&gt;5V DC 10A&lt;/span&gt;&lt;br style=&quot;border-color: var(--border-color); font-size: 9px;&quot;&gt;&lt;span style=&quot;font-size: 9px;&quot;&gt;Encoder&lt;/span&gt;" style="rounded=1;whiteSpace=wrap;html=1;fillColor=#f8cecc;strokeColor=#b85450;align=right;fontSize=9;" parent="1" vertex="1">
          <mxGeometry x="1494" y="789.9999999999999" width="120" height="38" as="geometry" />
        </mxCell>
        <mxCell id="OQNPQIhbmYLAiWT2xSHp-62" style="edgeStyle=orthogonalEdgeStyle;rounded=0;orthogonalLoop=1;jettySize=auto;html=1;exitX=1;exitY=0.5;exitDx=0;exitDy=0;entryX=-0.002;entryY=0.179;entryDx=0;entryDy=0;entryPerimeter=0;fillColor=#d5e8d4;strokeColor=#82b366;" parent="1" source="OQNPQIhbmYLAiWT2xSHp-18" target="OQNPQIhbmYLAiWT2xSHp-23" edge="1">
          <mxGeometry relative="1" as="geometry">
            <Array as="points">
              <mxPoint x="1389" y="591.9999999999999" />
              <mxPoint x="1400" y="591.9999999999999" />
            </Array>
          </mxGeometry>
        </mxCell>
        <mxCell id="OQNPQIhbmYLAiWT2xSHp-71" value="&lt;font style=&quot;font-size: 7px;&quot;&gt;GPIO 5&lt;/font&gt;" style="edgeLabel;html=1;align=center;verticalAlign=middle;resizable=0;points=[];" parent="OQNPQIhbmYLAiWT2xSHp-62" vertex="1" connectable="0">
          <mxGeometry x="0.1032" y="-1" relative="1" as="geometry">
            <mxPoint x="-3" y="-2" as="offset" />
          </mxGeometry>
        </mxCell>
        <mxCell id="OQNPQIhbmYLAiWT2xSHp-72" value="&lt;font style=&quot;font-size: 7px;&quot;&gt;L_PWM&lt;/font&gt;" style="edgeLabel;html=1;align=center;verticalAlign=middle;resizable=0;points=[];" parent="OQNPQIhbmYLAiWT2xSHp-62" vertex="1" connectable="0">
          <mxGeometry x="0.6945" relative="1" as="geometry">
            <mxPoint x="10" y="-2" as="offset" />
          </mxGeometry>
        </mxCell>
        <mxCell id="OQNPQIhbmYLAiWT2xSHp-63" style="edgeStyle=orthogonalEdgeStyle;rounded=0;orthogonalLoop=1;jettySize=auto;html=1;entryX=-0.002;entryY=0.302;entryDx=0;entryDy=0;entryPerimeter=0;fillColor=#d5e8d4;strokeColor=#82b366;" parent="1" source="OQNPQIhbmYLAiWT2xSHp-18" target="OQNPQIhbmYLAiWT2xSHp-23" edge="1">
          <mxGeometry relative="1" as="geometry">
            <Array as="points">
              <mxPoint x="1452" y="604.9999999999999" />
            </Array>
          </mxGeometry>
        </mxCell>
        <mxCell id="OQNPQIhbmYLAiWT2xSHp-70" value="&lt;font style=&quot;font-size: 7px;&quot;&gt;GPIO 4&lt;/font&gt;" style="edgeLabel;html=1;align=center;verticalAlign=middle;resizable=0;points=[];" parent="OQNPQIhbmYLAiWT2xSHp-63" vertex="1" connectable="0">
          <mxGeometry x="-0.8296" relative="1" as="geometry">
            <mxPoint x="4" y="-2" as="offset" />
          </mxGeometry>
        </mxCell>
        <mxCell id="OQNPQIhbmYLAiWT2xSHp-73" value="&lt;font style=&quot;font-size: 7px;&quot;&gt;R_PWM&lt;/font&gt;" style="edgeLabel;html=1;align=center;verticalAlign=middle;resizable=0;points=[];" parent="OQNPQIhbmYLAiWT2xSHp-63" vertex="1" connectable="0">
          <mxGeometry x="0.333" relative="1" as="geometry">
            <mxPoint x="15" y="-2" as="offset" />
          </mxGeometry>
        </mxCell>
        <mxCell id="OQNPQIhbmYLAiWT2xSHp-66" style="edgeStyle=orthogonalEdgeStyle;rounded=0;orthogonalLoop=1;jettySize=auto;html=1;entryX=-0.006;entryY=0.437;entryDx=0;entryDy=0;entryPerimeter=0;fillColor=#d5e8d4;strokeColor=#82b366;" parent="1" source="OQNPQIhbmYLAiWT2xSHp-18" target="OQNPQIhbmYLAiWT2xSHp-23" edge="1">
          <mxGeometry relative="1" as="geometry">
            <Array as="points">
              <mxPoint x="1451" y="618.9999999999999" />
            </Array>
          </mxGeometry>
        </mxCell>
        <mxCell id="OQNPQIhbmYLAiWT2xSHp-69" value="&lt;font style=&quot;font-size: 7px;&quot;&gt;GPIO 3&lt;/font&gt;" style="edgeLabel;html=1;align=center;verticalAlign=middle;resizable=0;points=[];" parent="OQNPQIhbmYLAiWT2xSHp-66" vertex="1" connectable="0">
          <mxGeometry x="-0.8105" y="1" relative="1" as="geometry">
            <mxPoint x="3" as="offset" />
          </mxGeometry>
        </mxCell>
        <mxCell id="OQNPQIhbmYLAiWT2xSHp-74" value="&lt;font style=&quot;font-size: 7px;&quot;&gt;L_Enable&lt;/font&gt;" style="edgeLabel;html=1;align=center;verticalAlign=middle;resizable=0;points=[];" parent="OQNPQIhbmYLAiWT2xSHp-66" vertex="1" connectable="0">
          <mxGeometry x="0.3103" y="1" relative="1" as="geometry">
            <mxPoint x="15" y="-1" as="offset" />
          </mxGeometry>
        </mxCell>
        <mxCell id="OQNPQIhbmYLAiWT2xSHp-67" style="edgeStyle=orthogonalEdgeStyle;rounded=0;orthogonalLoop=1;jettySize=auto;html=1;entryX=-0.006;entryY=0.553;entryDx=0;entryDy=0;entryPerimeter=0;fillColor=#d5e8d4;strokeColor=#82b366;" parent="1" source="OQNPQIhbmYLAiWT2xSHp-18" target="OQNPQIhbmYLAiWT2xSHp-23" edge="1">
          <mxGeometry relative="1" as="geometry">
            <Array as="points">
              <mxPoint x="1430" y="631.9999999999999" />
            </Array>
          </mxGeometry>
        </mxCell>
        <mxCell id="OQNPQIhbmYLAiWT2xSHp-68" value="&lt;font style=&quot;font-size: 7px;&quot;&gt;GPIO 2&lt;/font&gt;" style="edgeLabel;html=1;align=center;verticalAlign=middle;resizable=0;points=[];" parent="OQNPQIhbmYLAiWT2xSHp-67" vertex="1" connectable="0">
          <mxGeometry x="-0.8704" relative="1" as="geometry">
            <mxPoint x="7" y="-2" as="offset" />
          </mxGeometry>
        </mxCell>
        <mxCell id="OQNPQIhbmYLAiWT2xSHp-75" value="&lt;font style=&quot;font-size: 7px;&quot;&gt;R_Enable&lt;/font&gt;" style="edgeLabel;html=1;align=center;verticalAlign=middle;resizable=0;points=[];" parent="OQNPQIhbmYLAiWT2xSHp-67" vertex="1" connectable="0">
          <mxGeometry x="0.255" y="1" relative="1" as="geometry">
            <mxPoint x="17" y="-1" as="offset" />
          </mxGeometry>
        </mxCell>
        <mxCell id="OQNPQIhbmYLAiWT2xSHp-76" value="Control" style="text;html=1;strokeColor=none;fillColor=none;align=center;verticalAlign=middle;whiteSpace=wrap;rounded=0;rotation=90;" parent="1" vertex="1">
          <mxGeometry x="1494" y="620.1199999999998" width="60" height="12" as="geometry" />
        </mxCell>
        <mxCell id="OQNPQIhbmYLAiWT2xSHp-77" value="Power" style="text;html=1;strokeColor=none;fillColor=none;align=center;verticalAlign=middle;whiteSpace=wrap;rounded=0;rotation=-90;" parent="1" vertex="1">
          <mxGeometry x="1578" y="620.1199999999998" width="60" height="12" as="geometry" />
        </mxCell>
        <mxCell id="OQNPQIhbmYLAiWT2xSHp-101" style="edgeStyle=orthogonalEdgeStyle;rounded=0;orthogonalLoop=1;jettySize=auto;html=1;exitX=0;exitY=0.5;exitDx=0;exitDy=0;fillColor=#fff2cc;strokeColor=#d6b656;" parent="1" source="OQNPQIhbmYLAiWT2xSHp-9" edge="1">
          <mxGeometry relative="1" as="geometry">
            <mxPoint x="1390" y="726.9999999999999" as="targetPoint" />
            <Array as="points">
              <mxPoint x="1684" y="726.9999999999999" />
            </Array>
          </mxGeometry>
        </mxCell>
        <mxCell id="OQNPQIhbmYLAiWT2xSHp-106" value="&lt;font style=&quot;font-size: 7px;&quot;&gt;GPIO 19&lt;/font&gt;" style="edgeLabel;html=1;align=center;verticalAlign=middle;resizable=0;points=[];" parent="OQNPQIhbmYLAiWT2xSHp-101" vertex="1" connectable="0">
          <mxGeometry x="0.8667" relative="1" as="geometry">
            <mxPoint x="4" y="-2" as="offset" />
          </mxGeometry>
        </mxCell>
        <mxCell id="OQNPQIhbmYLAiWT2xSHp-109" value="&lt;font style=&quot;font-size: 7px;&quot;&gt;CHC1 (Encoder Index Pulse)&lt;/font&gt;" style="edgeLabel;html=1;align=center;verticalAlign=middle;resizable=0;points=[];" parent="OQNPQIhbmYLAiWT2xSHp-101" vertex="1" connectable="0">
          <mxGeometry x="-0.4989" y="-1" relative="1" as="geometry">
            <mxPoint x="13" as="offset" />
          </mxGeometry>
        </mxCell>
        <mxCell id="OQNPQIhbmYLAiWT2xSHp-102" style="edgeStyle=orthogonalEdgeStyle;rounded=0;orthogonalLoop=1;jettySize=auto;html=1;entryX=1.003;entryY=0.662;entryDx=0;entryDy=0;entryPerimeter=0;fillColor=#fff2cc;strokeColor=#d6b656;" parent="1" source="OQNPQIhbmYLAiWT2xSHp-9" target="OQNPQIhbmYLAiWT2xSHp-18" edge="1">
          <mxGeometry relative="1" as="geometry">
            <Array as="points">
              <mxPoint x="1650" y="749.9999999999999" />
            </Array>
          </mxGeometry>
        </mxCell>
        <mxCell id="OQNPQIhbmYLAiWT2xSHp-107" value="&lt;font style=&quot;font-size: 7px;&quot;&gt;GPIO 20&lt;/font&gt;" style="edgeLabel;html=1;align=center;verticalAlign=middle;resizable=0;points=[];" parent="OQNPQIhbmYLAiWT2xSHp-102" vertex="1" connectable="0">
          <mxGeometry x="0.894" relative="1" as="geometry">
            <mxPoint x="10" y="-2" as="offset" />
          </mxGeometry>
        </mxCell>
        <mxCell id="OQNPQIhbmYLAiWT2xSHp-110" value="&lt;font style=&quot;font-size: 7px;&quot;&gt;MSWITCH (Home Switch)&lt;/font&gt;" style="edgeLabel;html=1;align=center;verticalAlign=middle;resizable=0;points=[];" parent="OQNPQIhbmYLAiWT2xSHp-102" vertex="1" connectable="0">
          <mxGeometry x="-0.6516" relative="1" as="geometry">
            <mxPoint x="6" y="-2" as="offset" />
          </mxGeometry>
        </mxCell>
        <mxCell id="OQNPQIhbmYLAiWT2xSHp-115" style="edgeStyle=orthogonalEdgeStyle;rounded=0;orthogonalLoop=1;jettySize=auto;html=1;exitX=1.001;exitY=0.544;exitDx=0;exitDy=0;entryX=0.5;entryY=1;entryDx=0;entryDy=0;exitPerimeter=0;" parent="1" source="OQNPQIhbmYLAiWT2xSHp-33" target="OQNPQIhbmYLAiWT2xSHp-9" edge="1">
          <mxGeometry relative="1" as="geometry">
            <Array as="points">
              <mxPoint x="1717" y="810.9999999999999" />
            </Array>
          </mxGeometry>
        </mxCell>
        <mxCell id="OQNPQIhbmYLAiWT2xSHp-116" value="&lt;font style=&quot;font-size: 7px;&quot;&gt;GND&lt;/font&gt;" style="edgeLabel;html=1;align=center;verticalAlign=middle;resizable=0;points=[];" parent="OQNPQIhbmYLAiWT2xSHp-115" vertex="1" connectable="0">
          <mxGeometry x="0.7378" y="-1" relative="1" as="geometry">
            <mxPoint x="-37" y="28" as="offset" />
          </mxGeometry>
        </mxCell>
        <mxCell id="OQNPQIhbmYLAiWT2xSHp-121" style="edgeStyle=orthogonalEdgeStyle;rounded=0;orthogonalLoop=1;jettySize=auto;html=1;exitX=1;exitY=0.5;exitDx=0;exitDy=0;fillColor=#f8cecc;strokeColor=#b85450;entryX=1;entryY=0.5;entryDx=0;entryDy=0;" parent="1" source="OQNPQIhbmYLAiWT2xSHp-32" target="OQNPQIhbmYLAiWT2xSHp-5" edge="1">
          <mxGeometry relative="1" as="geometry">
            <mxPoint x="1990" y="579.9999999999999" as="targetPoint" />
            <Array as="points">
              <mxPoint x="1820" y="549.9999999999999" />
              <mxPoint x="1870" y="549.9999999999999" />
              <mxPoint x="1870" y="694.9999999999999" />
            </Array>
          </mxGeometry>
        </mxCell>
        <mxCell id="OQNPQIhbmYLAiWT2xSHp-123" value="&lt;font style=&quot;font-size: 7px;&quot;&gt;24V DC&lt;/font&gt;" style="edgeLabel;html=1;align=center;verticalAlign=middle;resizable=0;points=[];" parent="OQNPQIhbmYLAiWT2xSHp-121" vertex="1" connectable="0">
          <mxGeometry x="0.656" relative="1" as="geometry">
            <mxPoint x="-16" y="-3" as="offset" />
          </mxGeometry>
        </mxCell>
        <mxCell id="OQNPQIhbmYLAiWT2xSHp-5" value="Tarjeta de Control de Encendido de Motores" style="rounded=1;whiteSpace=wrap;html=1;fillColor=#f5f5f5;strokeColor=#666666;fontSize=9;fontColor=#333333;" parent="1" vertex="1">
          <mxGeometry x="1750" y="629.9999999999999" width="70" height="130" as="geometry" />
        </mxCell>
        <mxCell id="OQNPQIhbmYLAiWT2xSHp-18" value="Microcontroller&lt;br&gt;Arduino&lt;br style=&quot;font-size: 9px;&quot;&gt;&lt;b&gt;MEGA 2650 R3&lt;/b&gt;" style="rounded=1;whiteSpace=wrap;html=1;fillColor=#dae8fc;strokeColor=#6c8ebf;fontSize=9;" parent="1" vertex="1">
          <mxGeometry x="1280" y="572.2499999999999" width="109" height="267.75" as="geometry" />
        </mxCell>
        <mxCell id="OQNPQIhbmYLAiWT2xSHp-118" style="edgeStyle=orthogonalEdgeStyle;rounded=0;orthogonalLoop=1;jettySize=auto;html=1;exitX=0;exitY=0.25;exitDx=0;exitDy=0;entryX=1;entryY=0.25;entryDx=0;entryDy=0;fillColor=#f8cecc;strokeColor=#b85450;" parent="1" source="OQNPQIhbmYLAiWT2xSHp-4" target="OQNPQIhbmYLAiWT2xSHp-23" edge="1">
          <mxGeometry relative="1" as="geometry">
            <Array as="points">
              <mxPoint x="1700" y="586.9999999999999" />
              <mxPoint x="1650" y="586.9999999999999" />
              <mxPoint x="1650" y="598.9999999999999" />
            </Array>
          </mxGeometry>
        </mxCell>
        <mxCell id="OQNPQIhbmYLAiWT2xSHp-133" value="&lt;font style=&quot;font-size: 7px;&quot;&gt;&amp;nbsp;B +&amp;nbsp;&lt;/font&gt;" style="edgeLabel;html=1;align=center;verticalAlign=middle;resizable=0;points=[];" parent="OQNPQIhbmYLAiWT2xSHp-118" vertex="1" connectable="0">
          <mxGeometry x="0.6459" relative="1" as="geometry">
            <mxPoint x="1" y="-2" as="offset" />
          </mxGeometry>
        </mxCell>
        <mxCell id="OQNPQIhbmYLAiWT2xSHp-119" value="&lt;font style=&quot;font-size: 7px;&quot;&gt;16V DC&lt;/font&gt;" style="edgeLabel;html=1;align=center;verticalAlign=middle;resizable=0;points=[];" parent="OQNPQIhbmYLAiWT2xSHp-118" vertex="1" connectable="0">
          <mxGeometry x="-0.4782" y="-1" relative="1" as="geometry">
            <mxPoint x="-5" y="1" as="offset" />
          </mxGeometry>
        </mxCell>
        <mxCell id="O-teGVjLX70lfkyYScmD-1" value="&lt;b style=&quot;font-size: 30px;&quot;&gt;DIAGRAMA DE PROCESOS&lt;br&gt;&lt;/b&gt;&lt;font style=&quot;font-size: 20px;&quot; face=&quot;Helvetica&quot;&gt;&lt;b style=&quot;text-align: center; background-color: initial;&quot;&gt;Desarrollo de un controlador de bajo costo para las articulaciones de 2 brazos robóticos del Laboratorio T-119&lt;br&gt;CIM&amp;nbsp;&lt;/b&gt;&lt;b style=&quot;text-align: center; background-color: initial;&quot;&gt;&lt;span style=&quot;line-height: 19.9733px;&quot; lang=&quot;ES-MX&quot;&gt;del Campus Central de la Universidad Rafael Landívar&lt;/span&gt;&lt;/b&gt;&lt;b style=&quot;text-align: center; background-color: initial;&quot;&gt;&lt;br&gt;&lt;/b&gt;&lt;/font&gt;&lt;font style=&quot;font-size: 20px;&quot;&gt;&lt;br&gt;&lt;span style=&quot;&quot;&gt;&lt;b&gt;Elaborado por&lt;/b&gt;: Fernando Gómez y Emilio Guzmán&lt;/span&gt;&lt;br&gt;&lt;font style=&quot;font-size: 20px;&quot;&gt;&lt;b&gt;Ubicación&lt;/b&gt;:&amp;nbsp;&lt;/font&gt;https://github.com/fgomez1211/Personal/tree/main/MIR/Proyecto%20de%20Graduaci%C3%B3n&lt;br&gt;&lt;/font&gt;" style="text;html=1;strokeColor=none;fillColor=none;align=left;verticalAlign=middle;whiteSpace=wrap;rounded=0;" parent="1" vertex="1">
          <mxGeometry x="44" y="70" width="1450" height="180" as="geometry" />
        </mxCell>
        <mxCell id="O-teGVjLX70lfkyYScmD-2" value="&lt;div style=&quot;text-align: center;&quot;&gt;&lt;span style=&quot;font-size: 30px;&quot;&gt;&lt;b&gt;CODIGO DEL MICROCONTROLADOR&lt;/b&gt;&lt;/span&gt;&lt;/div&gt;" style="text;html=1;strokeColor=none;fillColor=none;align=left;verticalAlign=middle;whiteSpace=wrap;rounded=0;" parent="1" vertex="1">
          <mxGeometry x="242.14" y="300" width="496" height="90" as="geometry" />
        </mxCell>
        <mxCell id="O-teGVjLX70lfkyYScmD-3" value="&lt;div style=&quot;text-align: center;&quot;&gt;&lt;span style=&quot;font-size: 30px;&quot;&gt;&lt;b&gt;DIAGRAMA DE CONEXIONES&lt;/b&gt;&lt;/span&gt;&lt;/div&gt;&lt;div style=&quot;text-align: center;&quot;&gt;&lt;span style=&quot;font-size: 30px;&quot;&gt;&lt;b&gt;COMPONENTES ELECTRONICOS&lt;/b&gt;&lt;/span&gt;&lt;/div&gt;" style="text;html=1;strokeColor=none;fillColor=none;align=left;verticalAlign=middle;whiteSpace=wrap;rounded=0;" parent="1" vertex="1">
          <mxGeometry x="1306" y="300" width="496" height="90" as="geometry" />
        </mxCell>
        <mxCell id="KQGJKNnOwOhQXYTlbLYk-1" value="" style="edgeStyle=orthogonalEdgeStyle;rounded=0;orthogonalLoop=1;jettySize=auto;html=1;fillColor=#dae8fc;strokeColor=#6c8ebf;" edge="1" parent="1" source="KQGJKNnOwOhQXYTlbLYk-2" target="KQGJKNnOwOhQXYTlbLYk-4">
          <mxGeometry relative="1" as="geometry" />
        </mxCell>
        <mxCell id="KQGJKNnOwOhQXYTlbLYk-2" value="&lt;b&gt;Conexión USB&lt;br&gt;&lt;/b&gt;Alimentación del Arduino MEGA 2560 R3" style="rounded=1;whiteSpace=wrap;html=1;fillColor=#dae8fc;strokeColor=#6c8ebf;fontSize=9;" vertex="1" parent="1">
          <mxGeometry x="623.64" y="440" width="106" height="47.75" as="geometry" />
        </mxCell>
        <mxCell id="KQGJKNnOwOhQXYTlbLYk-3" value="" style="edgeStyle=orthogonalEdgeStyle;rounded=0;orthogonalLoop=1;jettySize=auto;html=1;fillColor=#dae8fc;strokeColor=#6c8ebf;" edge="1" parent="1" source="KQGJKNnOwOhQXYTlbLYk-4" target="KQGJKNnOwOhQXYTlbLYk-6">
          <mxGeometry relative="1" as="geometry" />
        </mxCell>
        <mxCell id="KQGJKNnOwOhQXYTlbLYk-4" value="&lt;span style=&quot;font-weight: normal;&quot;&gt;Declaración de Variables&lt;/span&gt;" style="rounded=1;whiteSpace=wrap;html=1;fillColor=#dae8fc;strokeColor=#6c8ebf;fontSize=9;fontStyle=1" vertex="1" parent="1">
          <mxGeometry x="623.64" y="520" width="106" height="45" as="geometry" />
        </mxCell>
        <mxCell id="KQGJKNnOwOhQXYTlbLYk-5" style="edgeStyle=orthogonalEdgeStyle;rounded=0;orthogonalLoop=1;jettySize=auto;html=1;exitX=0.5;exitY=1;exitDx=0;exitDy=0;entryX=0.5;entryY=0;entryDx=0;entryDy=0;" edge="1" parent="1" source="KQGJKNnOwOhQXYTlbLYk-6" target="KQGJKNnOwOhQXYTlbLYk-40">
          <mxGeometry relative="1" as="geometry" />
        </mxCell>
        <mxCell id="KQGJKNnOwOhQXYTlbLYk-6" value="&lt;span style=&quot;font-weight: normal;&quot;&gt;Definición de pines, inicio de comunicación serial.&lt;/span&gt;" style="rounded=1;whiteSpace=wrap;html=1;fillColor=#dae8fc;strokeColor=#6c8ebf;fontSize=9;fontStyle=1" vertex="1" parent="1">
          <mxGeometry x="623.64" y="590" width="106" height="45" as="geometry" />
        </mxCell>
        <mxCell id="KQGJKNnOwOhQXYTlbLYk-7" value="" style="edgeStyle=orthogonalEdgeStyle;rounded=0;orthogonalLoop=1;jettySize=auto;html=1;fillColor=#d5e8d4;strokeColor=#82b366;" edge="1" parent="1" source="KQGJKNnOwOhQXYTlbLYk-8" target="KQGJKNnOwOhQXYTlbLYk-24">
          <mxGeometry relative="1" as="geometry" />
        </mxCell>
        <mxCell id="KQGJKNnOwOhQXYTlbLYk-8" value="&lt;span style=&quot;font-weight: normal;&quot;&gt;Ejecutar funcion&lt;br&gt;&lt;/span&gt;findhome()" style="whiteSpace=wrap;html=1;fontSize=9;fillColor=#d5e8d4;strokeColor=#82b366;rounded=1;fontStyle=1;" vertex="1" parent="1">
          <mxGeometry x="147.14" y="851.8699999999999" width="120" height="60" as="geometry" />
        </mxCell>
        <mxCell id="KQGJKNnOwOhQXYTlbLYk-9" style="edgeStyle=orthogonalEdgeStyle;rounded=0;orthogonalLoop=1;jettySize=auto;html=1;exitX=0.5;exitY=1;exitDx=0;exitDy=0;entryX=0.5;entryY=0;entryDx=0;entryDy=0;fillColor=#d5e8d4;strokeColor=#82b366;" edge="1" parent="1" source="KQGJKNnOwOhQXYTlbLYk-10" target="KQGJKNnOwOhQXYTlbLYk-12">
          <mxGeometry relative="1" as="geometry" />
        </mxCell>
        <mxCell id="KQGJKNnOwOhQXYTlbLYk-10" value="&lt;span style=&quot;font-weight: 400;&quot;&gt;Detectar la Señal de &lt;/span&gt;Home&lt;br&gt;&lt;span style=&quot;font-weight: 400;&quot;&gt;Interrupt Pin&lt;/span&gt;&lt;br&gt;GPIO 20" style="whiteSpace=wrap;html=1;fontSize=9;fillColor=#d5e8d4;strokeColor=#82b366;rounded=1;fontStyle=1;" vertex="1" parent="1">
          <mxGeometry x="147.14" y="1022.3699999999999" width="120" height="60" as="geometry" />
        </mxCell>
        <mxCell id="KQGJKNnOwOhQXYTlbLYk-11" value="" style="edgeStyle=orthogonalEdgeStyle;rounded=0;orthogonalLoop=1;jettySize=auto;html=1;fillColor=#d5e8d4;strokeColor=#82b366;" edge="1" parent="1" source="KQGJKNnOwOhQXYTlbLYk-12" target="KQGJKNnOwOhQXYTlbLYk-17">
          <mxGeometry relative="1" as="geometry" />
        </mxCell>
        <mxCell id="KQGJKNnOwOhQXYTlbLYk-12" value="&lt;span style=&quot;font-weight: 400;&quot;&gt;Detectar la Señal de &lt;/span&gt;Index&lt;br&gt;&lt;span style=&quot;font-weight: 400;&quot;&gt;Interrupt Pin&lt;/span&gt;&lt;br&gt;GPIO 19" style="whiteSpace=wrap;html=1;fontSize=9;fillColor=#d5e8d4;strokeColor=#82b366;rounded=1;fontStyle=1;" vertex="1" parent="1">
          <mxGeometry x="147.14" y="1105.37" width="120" height="60" as="geometry" />
        </mxCell>
        <mxCell id="KQGJKNnOwOhQXYTlbLYk-13" value="" style="edgeStyle=orthogonalEdgeStyle;rounded=0;orthogonalLoop=1;jettySize=auto;html=1;entryX=0.5;entryY=0;entryDx=0;entryDy=0;fillColor=#d5e8d4;strokeColor=#82b366;" edge="1" parent="1" source="KQGJKNnOwOhQXYTlbLYk-17" target="KQGJKNnOwOhQXYTlbLYk-22">
          <mxGeometry relative="1" as="geometry">
            <mxPoint x="207.14" y="1349.4899999999998" as="targetPoint" />
          </mxGeometry>
        </mxCell>
        <mxCell id="KQGJKNnOwOhQXYTlbLYk-14" value="No" style="edgeLabel;html=1;align=center;verticalAlign=middle;resizable=0;points=[];fontSize=10;" vertex="1" connectable="0" parent="KQGJKNnOwOhQXYTlbLYk-13">
          <mxGeometry x="-0.1411" relative="1" as="geometry">
            <mxPoint y="-3" as="offset" />
          </mxGeometry>
        </mxCell>
        <mxCell id="KQGJKNnOwOhQXYTlbLYk-15" style="edgeStyle=orthogonalEdgeStyle;rounded=0;orthogonalLoop=1;jettySize=auto;html=1;exitX=1;exitY=0.5;exitDx=0;exitDy=0;entryX=0;entryY=0.5;entryDx=0;entryDy=0;fillColor=#d5e8d4;strokeColor=#82b366;" edge="1" parent="1" source="KQGJKNnOwOhQXYTlbLYk-17" target="KQGJKNnOwOhQXYTlbLYk-19">
          <mxGeometry relative="1" as="geometry" />
        </mxCell>
        <mxCell id="KQGJKNnOwOhQXYTlbLYk-16" value="Si" style="edgeLabel;html=1;align=center;verticalAlign=middle;resizable=0;points=[];fontSize=10;" vertex="1" connectable="0" parent="KQGJKNnOwOhQXYTlbLYk-15">
          <mxGeometry x="-0.1817" y="1" relative="1" as="geometry">
            <mxPoint as="offset" />
          </mxGeometry>
        </mxCell>
        <mxCell id="KQGJKNnOwOhQXYTlbLYk-17" value="&lt;span style=&quot;font-weight: 400;&quot;&gt;¿Detección de &lt;br&gt;señales &lt;br&gt;en ese orden?&lt;br&gt;&lt;/span&gt;" style="rhombus;whiteSpace=wrap;html=1;fontSize=9;fillColor=#d5e8d4;strokeColor=#82b366;rounded=1;fontStyle=1;" vertex="1" parent="1">
          <mxGeometry x="152.14" y="1191.4899999999998" width="110" height="112" as="geometry" />
        </mxCell>
        <mxCell id="KQGJKNnOwOhQXYTlbLYk-18" style="edgeStyle=orthogonalEdgeStyle;rounded=0;orthogonalLoop=1;jettySize=auto;html=1;exitX=0.5;exitY=0;exitDx=0;exitDy=0;entryX=0.5;entryY=1;entryDx=0;entryDy=0;fillColor=#d5e8d4;strokeColor=#82b366;" edge="1" parent="1" source="KQGJKNnOwOhQXYTlbLYk-19" target="KQGJKNnOwOhQXYTlbLYk-70">
          <mxGeometry relative="1" as="geometry" />
        </mxCell>
        <mxCell id="KQGJKNnOwOhQXYTlbLYk-19" value="Posición &lt;b&gt;Home&lt;/b&gt; encontrada" style="ellipse;whiteSpace=wrap;html=1;fontSize=9;fillColor=#d5e8d4;strokeColor=#82b366;rounded=1;fontStyle=0;" vertex="1" parent="1">
          <mxGeometry x="360.14" y="1207.7399999999998" width="80" height="80" as="geometry" />
        </mxCell>
        <mxCell id="KQGJKNnOwOhQXYTlbLYk-20" value="" style="edgeStyle=orthogonalEdgeStyle;rounded=0;orthogonalLoop=1;jettySize=auto;html=1;fillColor=#d5e8d4;strokeColor=#82b366;" edge="1" parent="1" source="KQGJKNnOwOhQXYTlbLYk-22" target="KQGJKNnOwOhQXYTlbLYk-26">
          <mxGeometry relative="1" as="geometry" />
        </mxCell>
        <mxCell id="KQGJKNnOwOhQXYTlbLYk-21" value="Si" style="edgeLabel;html=1;align=center;verticalAlign=middle;resizable=0;points=[];fontSize=10;" vertex="1" connectable="0" parent="KQGJKNnOwOhQXYTlbLYk-20">
          <mxGeometry x="-0.5203" y="1" relative="1" as="geometry">
            <mxPoint x="-2" y="4" as="offset" />
          </mxGeometry>
        </mxCell>
        <mxCell id="KQGJKNnOwOhQXYTlbLYk-22" value="&lt;span style=&quot;font-weight: 400;&quot;&gt;¿Articulación llego&lt;br&gt;a un tope físico?&lt;br&gt;&lt;/span&gt;" style="rhombus;whiteSpace=wrap;html=1;fontSize=9;fillColor=#d5e8d4;strokeColor=#82b366;rounded=1;fontStyle=1;" vertex="1" parent="1">
          <mxGeometry x="152.14" y="1342.37" width="110" height="112" as="geometry" />
        </mxCell>
        <mxCell id="KQGJKNnOwOhQXYTlbLYk-23" style="edgeStyle=orthogonalEdgeStyle;rounded=0;orthogonalLoop=1;jettySize=auto;html=1;fillColor=#d5e8d4;strokeColor=#82b366;" edge="1" parent="1" source="KQGJKNnOwOhQXYTlbLYk-24" target="KQGJKNnOwOhQXYTlbLYk-10">
          <mxGeometry relative="1" as="geometry" />
        </mxCell>
        <mxCell id="KQGJKNnOwOhQXYTlbLYk-24" value="&lt;span style=&quot;font-weight: 400;&quot;&gt;Movimiento de la articulación en sentido antihorario.&lt;/span&gt;&lt;br&gt;PWM2 - GPIO 5" style="whiteSpace=wrap;html=1;fontSize=9;fillColor=#d5e8d4;strokeColor=#82b366;rounded=1;fontStyle=1;" vertex="1" parent="1">
          <mxGeometry x="147.14" y="936.6199999999999" width="120" height="60" as="geometry" />
        </mxCell>
        <mxCell id="KQGJKNnOwOhQXYTlbLYk-25" style="edgeStyle=orthogonalEdgeStyle;rounded=0;orthogonalLoop=1;jettySize=auto;html=1;exitX=0;exitY=0.5;exitDx=0;exitDy=0;entryX=0;entryY=0.5;entryDx=0;entryDy=0;fillColor=#d5e8d4;strokeColor=#82b366;" edge="1" parent="1" source="KQGJKNnOwOhQXYTlbLYk-26" target="KQGJKNnOwOhQXYTlbLYk-10">
          <mxGeometry relative="1" as="geometry">
            <Array as="points">
              <mxPoint x="100" y="1522" />
              <mxPoint x="100" y="1052" />
            </Array>
          </mxGeometry>
        </mxCell>
        <mxCell id="KQGJKNnOwOhQXYTlbLYk-26" value="&lt;span style=&quot;font-weight: normal;&quot;&gt;Movimiento de la articulación en sentido horario.&lt;/span&gt;&lt;span style=&quot;border-color: var(--border-color); font-weight: normal; border-color: var(--border-color);&quot;&gt;&lt;/span&gt;&lt;br style=&quot;border-color: var(--border-color);&quot;&gt;PWM1 - GPIO 4" style="whiteSpace=wrap;html=1;fontSize=9;fillColor=#d5e8d4;strokeColor=#82b366;rounded=1;fontStyle=1;" vertex="1" parent="1">
          <mxGeometry x="147.14" y="1492.37" width="120" height="60" as="geometry" />
        </mxCell>
        <mxCell id="KQGJKNnOwOhQXYTlbLYk-27" value="" style="edgeStyle=orthogonalEdgeStyle;rounded=0;orthogonalLoop=1;jettySize=auto;html=1;exitX=0.5;exitY=1;exitDx=0;exitDy=0;entryX=0.5;entryY=0;entryDx=0;entryDy=0;fillColor=#fad9d5;strokeColor=#ae4132;" edge="1" parent="1" source="KQGJKNnOwOhQXYTlbLYk-31" target="KQGJKNnOwOhQXYTlbLYk-33">
          <mxGeometry relative="1" as="geometry">
            <Array as="points">
              <mxPoint x="677.14" y="858.2399999999998" />
              <mxPoint x="519.14" y="858.2399999999998" />
            </Array>
          </mxGeometry>
        </mxCell>
        <mxCell id="KQGJKNnOwOhQXYTlbLYk-28" value="" style="edgeStyle=orthogonalEdgeStyle;rounded=0;orthogonalLoop=1;jettySize=auto;html=1;exitX=0.5;exitY=1;exitDx=0;exitDy=0;entryX=0.5;entryY=0;entryDx=0;entryDy=0;fillColor=#fad9d5;strokeColor=#ae4132;" edge="1" parent="1" source="KQGJKNnOwOhQXYTlbLYk-31" target="KQGJKNnOwOhQXYTlbLYk-36">
          <mxGeometry relative="1" as="geometry">
            <Array as="points">
              <mxPoint x="676.14" y="858.2399999999998" />
              <mxPoint x="726.14" y="858.2399999999998" />
            </Array>
          </mxGeometry>
        </mxCell>
        <mxCell id="KQGJKNnOwOhQXYTlbLYk-29" style="edgeStyle=orthogonalEdgeStyle;rounded=0;orthogonalLoop=1;jettySize=auto;html=1;exitX=0.5;exitY=1;exitDx=0;exitDy=0;entryX=0.5;entryY=0;entryDx=0;entryDy=0;fillColor=#fad9d5;strokeColor=#ae4132;" edge="1" parent="1" source="KQGJKNnOwOhQXYTlbLYk-31" target="KQGJKNnOwOhQXYTlbLYk-38">
          <mxGeometry relative="1" as="geometry">
            <Array as="points">
              <mxPoint x="677.14" y="858.2399999999998" />
              <mxPoint x="831.14" y="858.2399999999998" />
            </Array>
          </mxGeometry>
        </mxCell>
        <mxCell id="KQGJKNnOwOhQXYTlbLYk-30" style="edgeStyle=orthogonalEdgeStyle;rounded=0;orthogonalLoop=1;jettySize=auto;html=1;exitX=0.5;exitY=1;exitDx=0;exitDy=0;entryX=0.5;entryY=0;entryDx=0;entryDy=0;fillColor=#fad9d5;strokeColor=#ae4132;" edge="1" parent="1" source="KQGJKNnOwOhQXYTlbLYk-31" target="KQGJKNnOwOhQXYTlbLYk-35">
          <mxGeometry relative="1" as="geometry">
            <Array as="points">
              <mxPoint x="676.14" y="858.2399999999998" />
              <mxPoint x="623.14" y="858.2399999999998" />
            </Array>
          </mxGeometry>
        </mxCell>
        <mxCell id="KQGJKNnOwOhQXYTlbLYk-31" value="&lt;span style=&quot;font-weight: 400;&quot;&gt;Separación de caracteres&lt;br&gt;comando&lt;/span&gt;&lt;br&gt;&lt;span style=&quot;font-weight: 400;&quot;&gt;valor&lt;/span&gt;" style="rounded=1;whiteSpace=wrap;html=1;fillColor=#fad9d5;strokeColor=#ae4132;fontSize=9;fontStyle=1" vertex="1" parent="1">
          <mxGeometry x="615.14" y="765.4899999999998" width="123" height="60" as="geometry" />
        </mxCell>
        <mxCell id="KQGJKNnOwOhQXYTlbLYk-32" style="edgeStyle=orthogonalEdgeStyle;rounded=0;orthogonalLoop=1;jettySize=auto;html=1;exitX=0;exitY=0.5;exitDx=0;exitDy=0;fillColor=#fff2cc;strokeColor=#d6b656;" edge="1" parent="1" source="KQGJKNnOwOhQXYTlbLYk-33" target="KQGJKNnOwOhQXYTlbLYk-70">
          <mxGeometry relative="1" as="geometry" />
        </mxCell>
        <mxCell id="KQGJKNnOwOhQXYTlbLYk-33" value="&lt;span style=&quot;font-weight: normal;&quot;&gt;GOH&lt;/span&gt;&lt;br&gt;Go Home" style="ellipse;whiteSpace=wrap;html=1;fontSize=9;fillColor=#fff2cc;strokeColor=#d6b656;rounded=1;fontStyle=1;" vertex="1" parent="1">
          <mxGeometry x="479.14" y="892.3599999999997" width="80" height="80" as="geometry" />
        </mxCell>
        <mxCell id="KQGJKNnOwOhQXYTlbLYk-34" style="edgeStyle=orthogonalEdgeStyle;rounded=0;orthogonalLoop=1;jettySize=auto;html=1;exitX=0.5;exitY=1;exitDx=0;exitDy=0;fillColor=#e1d5e7;strokeColor=#9673a6;" edge="1" parent="1" source="KQGJKNnOwOhQXYTlbLYk-35" target="KQGJKNnOwOhQXYTlbLYk-42">
          <mxGeometry relative="1" as="geometry">
            <Array as="points">
              <mxPoint x="623.14" y="988.2399999999998" />
              <mxPoint x="607.14" y="988.2399999999998" />
            </Array>
          </mxGeometry>
        </mxCell>
        <mxCell id="KQGJKNnOwOhQXYTlbLYk-35" value="&lt;span style=&quot;font-weight: normal;&quot;&gt;GOR&lt;/span&gt;&lt;br&gt;Go Right" style="ellipse;whiteSpace=wrap;html=1;fontSize=9;fillColor=#e1d5e7;strokeColor=#9673a6;rounded=1;fontStyle=1;" vertex="1" parent="1">
          <mxGeometry x="583.14" y="892.3599999999997" width="80" height="80" as="geometry" />
        </mxCell>
        <mxCell id="KQGJKNnOwOhQXYTlbLYk-36" value="&lt;span style=&quot;font-weight: normal;&quot;&gt;GOL&lt;/span&gt;&lt;br&gt;Go Left" style="ellipse;whiteSpace=wrap;html=1;fontSize=9;rounded=1;fontStyle=1;fillColor=#f5f5f5;fontColor=#333333;strokeColor=#666666;" vertex="1" parent="1">
          <mxGeometry x="687.14" y="892.3599999999997" width="80" height="80" as="geometry" />
        </mxCell>
        <mxCell id="KQGJKNnOwOhQXYTlbLYk-37" value="" style="edgeStyle=orthogonalEdgeStyle;rounded=0;orthogonalLoop=1;jettySize=auto;html=1;" edge="1" parent="1" source="KQGJKNnOwOhQXYTlbLYk-38" target="KQGJKNnOwOhQXYTlbLYk-58">
          <mxGeometry relative="1" as="geometry" />
        </mxCell>
        <mxCell id="KQGJKNnOwOhQXYTlbLYk-38" value="&lt;span style=&quot;font-weight: normal;&quot;&gt;REP&lt;br&gt;&lt;/span&gt;Report Position" style="ellipse;whiteSpace=wrap;html=1;fontSize=9;rounded=1;fontStyle=1;" vertex="1" parent="1">
          <mxGeometry x="791.14" y="892.3599999999997" width="80" height="80" as="geometry" />
        </mxCell>
        <mxCell id="KQGJKNnOwOhQXYTlbLYk-39" style="edgeStyle=orthogonalEdgeStyle;rounded=0;orthogonalLoop=1;jettySize=auto;html=1;entryX=0.5;entryY=0;entryDx=0;entryDy=0;fillColor=#fad9d5;strokeColor=#ae4132;" edge="1" parent="1" source="KQGJKNnOwOhQXYTlbLYk-40" target="KQGJKNnOwOhQXYTlbLYk-31">
          <mxGeometry relative="1" as="geometry" />
        </mxCell>
        <mxCell id="KQGJKNnOwOhQXYTlbLYk-40" value="&lt;span style=&quot;font-weight: normal;&quot;&gt;Ingresar el comando y posición absoluta en el monitor serial&lt;br&gt;&lt;/span&gt;" style="rounded=1;whiteSpace=wrap;html=1;fillColor=#fad9d5;strokeColor=#ae4132;fontSize=9;fontStyle=1;" vertex="1" parent="1">
          <mxGeometry x="615.14" y="677.7399999999998" width="123" height="60" as="geometry" />
        </mxCell>
        <mxCell id="KQGJKNnOwOhQXYTlbLYk-41" value="" style="edgeStyle=orthogonalEdgeStyle;rounded=0;orthogonalLoop=1;jettySize=auto;html=1;fillColor=#e1d5e7;strokeColor=#9673a6;entryX=0.25;entryY=0;entryDx=0;entryDy=0;exitX=0.5;exitY=1;exitDx=0;exitDy=0;" edge="1" parent="1" source="KQGJKNnOwOhQXYTlbLYk-42" target="KQGJKNnOwOhQXYTlbLYk-50">
          <mxGeometry relative="1" as="geometry">
            <mxPoint x="607.14" y="1082.3599999999997" as="sourcePoint" />
            <mxPoint x="607.1581818181818" y="1124.2399999999998" as="targetPoint" />
          </mxGeometry>
        </mxCell>
        <mxCell id="KQGJKNnOwOhQXYTlbLYk-42" value="&lt;span style=&quot;font-weight: normal;&quot;&gt;Validar que &#39;&lt;/span&gt;valor&lt;span style=&quot;font-weight: normal;&quot;&gt;&#39; no supere el limite de la articulación&lt;/span&gt;" style="whiteSpace=wrap;html=1;fontSize=9;fillColor=#e1d5e7;strokeColor=#9673a6;rounded=1;fontStyle=1;" vertex="1" parent="1">
          <mxGeometry x="547.14" y="1007.3599999999997" width="120" height="60" as="geometry" />
        </mxCell>
        <mxCell id="KQGJKNnOwOhQXYTlbLYk-43" style="edgeStyle=orthogonalEdgeStyle;rounded=0;orthogonalLoop=1;jettySize=auto;html=1;exitX=0.5;exitY=1;exitDx=0;exitDy=0;entryX=0.75;entryY=0;entryDx=0;entryDy=0;fillColor=#f5f5f5;strokeColor=#666666;" edge="1" parent="1" source="KQGJKNnOwOhQXYTlbLYk-44" target="KQGJKNnOwOhQXYTlbLYk-50">
          <mxGeometry relative="1" as="geometry" />
        </mxCell>
        <mxCell id="KQGJKNnOwOhQXYTlbLYk-44" value="&lt;span style=&quot;font-weight: normal;&quot;&gt;Validar que &#39;&lt;/span&gt;valor&lt;span style=&quot;font-weight: normal;&quot;&gt;&#39; no supere el limite de la articulación&lt;/span&gt;" style="whiteSpace=wrap;html=1;fontSize=9;rounded=1;fontStyle=1;fillColor=#f5f5f5;fontColor=#333333;strokeColor=#666666;" vertex="1" parent="1">
          <mxGeometry x="687.14" y="1007.3599999999997" width="120" height="60" as="geometry" />
        </mxCell>
        <mxCell id="KQGJKNnOwOhQXYTlbLYk-45" style="edgeStyle=orthogonalEdgeStyle;rounded=0;orthogonalLoop=1;jettySize=auto;html=1;exitX=0.5;exitY=1;exitDx=0;exitDy=0;entryX=0.475;entryY=-0.037;entryDx=0;entryDy=0;entryPerimeter=0;fillColor=#f5f5f5;strokeColor=#666666;" edge="1" parent="1" source="KQGJKNnOwOhQXYTlbLYk-36" target="KQGJKNnOwOhQXYTlbLYk-44">
          <mxGeometry relative="1" as="geometry">
            <Array as="points">
              <mxPoint x="727.14" y="988.2399999999998" />
              <mxPoint x="744.14" y="988.2399999999998" />
            </Array>
          </mxGeometry>
        </mxCell>
        <mxCell id="KQGJKNnOwOhQXYTlbLYk-46" style="edgeStyle=orthogonalEdgeStyle;rounded=0;orthogonalLoop=1;jettySize=auto;html=1;entryX=0.5;entryY=0;entryDx=0;entryDy=0;fillColor=#ffe6cc;strokeColor=#d79b00;exitX=0.493;exitY=1.003;exitDx=0;exitDy=0;exitPerimeter=0;" edge="1" parent="1" source="KQGJKNnOwOhQXYTlbLYk-50" target="KQGJKNnOwOhQXYTlbLYk-52">
          <mxGeometry relative="1" as="geometry">
            <mxPoint x="674.14" y="1118.2400000000002" as="sourcePoint" />
            <Array as="points">
              <mxPoint x="674.14" y="1168.2399999999998" />
              <mxPoint x="607.14" y="1168.2399999999998" />
            </Array>
          </mxGeometry>
        </mxCell>
        <mxCell id="KQGJKNnOwOhQXYTlbLYk-47" value="valor +" style="edgeLabel;html=1;align=center;verticalAlign=middle;resizable=0;points=[];fontSize=10;" vertex="1" connectable="0" parent="KQGJKNnOwOhQXYTlbLYk-46">
          <mxGeometry x="0.3856" y="1" relative="1" as="geometry">
            <mxPoint x="2" y="13" as="offset" />
          </mxGeometry>
        </mxCell>
        <mxCell id="KQGJKNnOwOhQXYTlbLYk-48" style="edgeStyle=orthogonalEdgeStyle;rounded=0;orthogonalLoop=1;jettySize=auto;html=1;fillColor=#ffe6cc;strokeColor=#d79b00;exitX=0.493;exitY=0.995;exitDx=0;exitDy=0;exitPerimeter=0;" edge="1" parent="1" source="KQGJKNnOwOhQXYTlbLYk-50" target="KQGJKNnOwOhQXYTlbLYk-54">
          <mxGeometry relative="1" as="geometry">
            <mxPoint x="670.14" y="1148.2399999999998" as="sourcePoint" />
            <Array as="points">
              <mxPoint x="674.14" y="1168.2399999999998" />
              <mxPoint x="747.14" y="1168.2399999999998" />
            </Array>
          </mxGeometry>
        </mxCell>
        <mxCell id="KQGJKNnOwOhQXYTlbLYk-49" value="valor -" style="edgeLabel;html=1;align=center;verticalAlign=middle;resizable=0;points=[];fontSize=10;" vertex="1" connectable="0" parent="KQGJKNnOwOhQXYTlbLYk-48">
          <mxGeometry x="-0.0105" y="-1" relative="1" as="geometry">
            <mxPoint x="30" y="13" as="offset" />
          </mxGeometry>
        </mxCell>
        <mxCell id="KQGJKNnOwOhQXYTlbLYk-50" value="&lt;span style=&quot;font-weight: normal;&quot;&gt;Ejecutar función&lt;br&gt;&lt;/span&gt;GoAngulo" style="whiteSpace=wrap;html=1;fontSize=9;rounded=1;fontStyle=1;fillColor=#ffe6cc;strokeColor=#d79b00;" vertex="1" parent="1">
          <mxGeometry x="600.14" y="1103.2399999999998" width="150" height="43" as="geometry" />
        </mxCell>
        <mxCell id="KQGJKNnOwOhQXYTlbLYk-51" style="edgeStyle=orthogonalEdgeStyle;rounded=0;orthogonalLoop=1;jettySize=auto;html=1;entryX=0;entryY=0;entryDx=0;entryDy=0;fillColor=#e1d5e7;strokeColor=#9673a6;" edge="1" parent="1" source="KQGJKNnOwOhQXYTlbLYk-52" target="KQGJKNnOwOhQXYTlbLYk-63">
          <mxGeometry relative="1" as="geometry" />
        </mxCell>
        <mxCell id="KQGJKNnOwOhQXYTlbLYk-52" value="Mover&lt;span style=&quot;font-weight: normal;&quot;&gt; articulación en sentido &lt;/span&gt;horario&lt;span style=&quot;font-weight: normal;&quot;&gt; hasta&lt;br&gt;&amp;nbsp;alcanzar posición&lt;/span&gt;" style="whiteSpace=wrap;html=1;fontSize=9;fillColor=#e1d5e7;strokeColor=#9673a6;rounded=1;fontStyle=1;" vertex="1" parent="1">
          <mxGeometry x="547.14" y="1207.7399999999998" width="120" height="60" as="geometry" />
        </mxCell>
        <mxCell id="KQGJKNnOwOhQXYTlbLYk-53" style="edgeStyle=orthogonalEdgeStyle;rounded=0;orthogonalLoop=1;jettySize=auto;html=1;exitX=0.5;exitY=1;exitDx=0;exitDy=0;entryX=1;entryY=0;entryDx=0;entryDy=0;fillColor=#f5f5f5;strokeColor=#666666;" edge="1" parent="1" source="KQGJKNnOwOhQXYTlbLYk-54" target="KQGJKNnOwOhQXYTlbLYk-63">
          <mxGeometry relative="1" as="geometry" />
        </mxCell>
        <mxCell id="KQGJKNnOwOhQXYTlbLYk-54" value="Mover&lt;span style=&quot;font-weight: normal;&quot;&gt; articulación en sentido &lt;/span&gt;antihorario &lt;br&gt;&lt;span style=&quot;font-weight: normal;&quot;&gt;hasta alcanzar posición&lt;/span&gt;" style="whiteSpace=wrap;html=1;fontSize=9;fillColor=#f5f5f5;strokeColor=#666666;rounded=1;fontStyle=1;fontColor=#333333;" vertex="1" parent="1">
          <mxGeometry x="687.14" y="1207.7399999999998" width="120" height="60" as="geometry" />
        </mxCell>
        <mxCell id="KQGJKNnOwOhQXYTlbLYk-55" value="Imprimir &quot;&lt;b&gt;Fail&lt;/b&gt;&quot;" style="whiteSpace=wrap;html=1;fontSize=9;fillColor=#fad7ac;strokeColor=#b46504;rounded=1;fontStyle=0;" vertex="1" parent="1">
          <mxGeometry x="791.14" y="1369.12" width="120" height="35.88" as="geometry" />
        </mxCell>
        <mxCell id="KQGJKNnOwOhQXYTlbLYk-56" value="Imprimir &lt;b&gt;posición actual&lt;/b&gt;" style="whiteSpace=wrap;html=1;fontSize=9;fillColor=#fad7ac;strokeColor=#b46504;rounded=1;fontStyle=0;" vertex="1" parent="1">
          <mxGeometry x="791.14" y="1311.1799999999998" width="120" height="35.88" as="geometry" />
        </mxCell>
        <mxCell id="KQGJKNnOwOhQXYTlbLYk-57" style="edgeStyle=orthogonalEdgeStyle;rounded=0;orthogonalLoop=1;jettySize=auto;html=1;exitX=1;exitY=0.5;exitDx=0;exitDy=0;entryX=1;entryY=0.75;entryDx=0;entryDy=0;" edge="1" parent="1" source="KQGJKNnOwOhQXYTlbLYk-58" target="KQGJKNnOwOhQXYTlbLYk-40">
          <mxGeometry relative="1" as="geometry">
            <mxPoint x="875.5047075736576" y="736.5181529920778" as="targetPoint" />
            <Array as="points">
              <mxPoint x="957.14" y="1037.2399999999998" />
              <mxPoint x="957.14" y="723.2399999999998" />
              <mxPoint x="738.14" y="723.2399999999998" />
            </Array>
          </mxGeometry>
        </mxCell>
        <mxCell id="KQGJKNnOwOhQXYTlbLYk-58" value="&lt;span style=&quot;font-weight: normal;&quot;&gt;Imprimir &lt;/span&gt;posición actual" style="whiteSpace=wrap;html=1;fontSize=9;rounded=1;fontStyle=1;" vertex="1" parent="1">
          <mxGeometry x="827.14" y="1007.3599999999997" width="120" height="60" as="geometry" />
        </mxCell>
        <mxCell id="KQGJKNnOwOhQXYTlbLYk-59" style="edgeStyle=orthogonalEdgeStyle;rounded=0;orthogonalLoop=1;jettySize=auto;html=1;exitX=1;exitY=0.5;exitDx=0;exitDy=0;entryX=0;entryY=0.5;entryDx=0;entryDy=0;fillColor=#fad7ac;strokeColor=#b46504;" edge="1" parent="1" source="KQGJKNnOwOhQXYTlbLYk-63" target="KQGJKNnOwOhQXYTlbLYk-56">
          <mxGeometry relative="1" as="geometry" />
        </mxCell>
        <mxCell id="KQGJKNnOwOhQXYTlbLYk-60" value="Si" style="edgeLabel;html=1;align=center;verticalAlign=middle;resizable=0;points=[];fontSize=10;" vertex="1" connectable="0" parent="KQGJKNnOwOhQXYTlbLYk-59">
          <mxGeometry x="-0.0665" relative="1" as="geometry">
            <mxPoint x="-3" as="offset" />
          </mxGeometry>
        </mxCell>
        <mxCell id="KQGJKNnOwOhQXYTlbLYk-61" style="edgeStyle=orthogonalEdgeStyle;rounded=0;orthogonalLoop=1;jettySize=auto;html=1;exitX=0.5;exitY=1;exitDx=0;exitDy=0;entryX=0;entryY=0.5;entryDx=0;entryDy=0;fillColor=#ffe6cc;strokeColor=#d79b00;" edge="1" parent="1" source="KQGJKNnOwOhQXYTlbLYk-63" target="KQGJKNnOwOhQXYTlbLYk-55">
          <mxGeometry relative="1" as="geometry" />
        </mxCell>
        <mxCell id="KQGJKNnOwOhQXYTlbLYk-62" value="&lt;font style=&quot;font-size: 10px;&quot;&gt;No&lt;/font&gt;" style="edgeLabel;html=1;align=center;verticalAlign=middle;resizable=0;points=[];" vertex="1" connectable="0" parent="KQGJKNnOwOhQXYTlbLYk-61">
          <mxGeometry x="0.317" y="1" relative="1" as="geometry">
            <mxPoint as="offset" />
          </mxGeometry>
        </mxCell>
        <mxCell id="KQGJKNnOwOhQXYTlbLYk-63" value="&lt;span style=&quot;font-weight: normal;&quot;&gt;¿Llegó a la posición&lt;br&gt;deseada?&lt;/span&gt;" style="rhombus;whiteSpace=wrap;html=1;fontSize=9;fillColor=#fad7ac;strokeColor=#b46504;rounded=1;fontStyle=1;" vertex="1" parent="1">
          <mxGeometry x="635.14" y="1289.12" width="80" height="80" as="geometry" />
        </mxCell>
        <mxCell id="KQGJKNnOwOhQXYTlbLYk-64" style="edgeStyle=orthogonalEdgeStyle;rounded=0;orthogonalLoop=1;jettySize=auto;html=1;exitX=1;exitY=0.5;exitDx=0;exitDy=0;entryX=1;entryY=0.5;entryDx=0;entryDy=0;fillColor=#fad7ac;strokeColor=#b46504;" edge="1" parent="1" source="KQGJKNnOwOhQXYTlbLYk-56" target="KQGJKNnOwOhQXYTlbLYk-40">
          <mxGeometry relative="1" as="geometry">
            <Array as="points">
              <mxPoint x="970.14" y="1329.2399999999998" />
              <mxPoint x="970.14" y="708.2399999999998" />
              <mxPoint x="738.14" y="708.2399999999998" />
            </Array>
          </mxGeometry>
        </mxCell>
        <mxCell id="KQGJKNnOwOhQXYTlbLYk-65" style="edgeStyle=orthogonalEdgeStyle;rounded=0;orthogonalLoop=1;jettySize=auto;html=1;exitX=1;exitY=0.5;exitDx=0;exitDy=0;entryX=1;entryY=0.25;entryDx=0;entryDy=0;fillColor=#fad7ac;strokeColor=#b46504;" edge="1" parent="1" source="KQGJKNnOwOhQXYTlbLYk-55" target="KQGJKNnOwOhQXYTlbLYk-40">
          <mxGeometry relative="1" as="geometry">
            <Array as="points">
              <mxPoint x="980.14" y="1393.2399999999998" />
              <mxPoint x="980.14" y="692.2399999999998" />
            </Array>
          </mxGeometry>
        </mxCell>
        <mxCell id="KQGJKNnOwOhQXYTlbLYk-66" style="edgeStyle=orthogonalEdgeStyle;rounded=0;orthogonalLoop=1;jettySize=auto;html=1;exitX=0.5;exitY=0;exitDx=0;exitDy=0;entryX=0.5;entryY=1;entryDx=0;entryDy=0;fillColor=#dae8fc;strokeColor=#6c8ebf;" edge="1" parent="1" source="KQGJKNnOwOhQXYTlbLYk-70" target="KQGJKNnOwOhQXYTlbLYk-72">
          <mxGeometry relative="1" as="geometry" />
        </mxCell>
        <mxCell id="KQGJKNnOwOhQXYTlbLYk-67" value="Si" style="edgeLabel;html=1;align=center;verticalAlign=middle;resizable=0;points=[];fontSize=10;" vertex="1" connectable="0" parent="KQGJKNnOwOhQXYTlbLYk-66">
          <mxGeometry x="-0.2442" y="1" relative="1" as="geometry">
            <mxPoint as="offset" />
          </mxGeometry>
        </mxCell>
        <mxCell id="KQGJKNnOwOhQXYTlbLYk-68" style="edgeStyle=orthogonalEdgeStyle;rounded=0;orthogonalLoop=1;jettySize=auto;html=1;exitX=0;exitY=0.5;exitDx=0;exitDy=0;entryX=1;entryY=0.5;entryDx=0;entryDy=0;fillColor=#d5e8d4;strokeColor=#82b366;" edge="1" parent="1" source="KQGJKNnOwOhQXYTlbLYk-70" target="KQGJKNnOwOhQXYTlbLYk-74">
          <mxGeometry relative="1" as="geometry" />
        </mxCell>
        <mxCell id="KQGJKNnOwOhQXYTlbLYk-69" value="No" style="edgeLabel;html=1;align=center;verticalAlign=middle;resizable=0;points=[];fontSize=10;" vertex="1" connectable="0" parent="KQGJKNnOwOhQXYTlbLYk-68">
          <mxGeometry x="-0.0307" y="1" relative="1" as="geometry">
            <mxPoint as="offset" />
          </mxGeometry>
        </mxCell>
        <mxCell id="KQGJKNnOwOhQXYTlbLYk-70" value="&lt;span style=&quot;font-weight: normal;&quot;&gt;¿Estoy en &lt;/span&gt;&lt;br&gt;Home&lt;span style=&quot;font-weight: normal;&quot;&gt;?&lt;/span&gt;" style="rhombus;whiteSpace=wrap;html=1;fontSize=9;fillColor=#dae8fc;strokeColor=#6c8ebf;rounded=1;fontStyle=1;" vertex="1" parent="1">
          <mxGeometry x="360.14" y="892.3600000000001" width="80" height="80" as="geometry" />
        </mxCell>
        <mxCell id="KQGJKNnOwOhQXYTlbLYk-71" style="edgeStyle=orthogonalEdgeStyle;rounded=0;orthogonalLoop=1;jettySize=auto;html=1;exitX=0.5;exitY=0;exitDx=0;exitDy=0;entryX=0;entryY=0.5;entryDx=0;entryDy=0;fillColor=#dae8fc;strokeColor=#6c8ebf;" edge="1" parent="1" source="KQGJKNnOwOhQXYTlbLYk-72" target="KQGJKNnOwOhQXYTlbLYk-40">
          <mxGeometry relative="1" as="geometry" />
        </mxCell>
        <mxCell id="KQGJKNnOwOhQXYTlbLYk-72" value="&lt;span style=&quot;font-weight: 400;&quot;&gt;Almacena&lt;br&gt;posición actual&lt;br&gt;0°&lt;br&gt;&lt;/span&gt;" style="ellipse;whiteSpace=wrap;html=1;fontSize=9;fillColor=#dae8fc;strokeColor=#6c8ebf;rounded=1;fontStyle=1;" vertex="1" parent="1">
          <mxGeometry x="360.14" y="742.25" width="80" height="80" as="geometry" />
        </mxCell>
        <mxCell id="KQGJKNnOwOhQXYTlbLYk-73" style="edgeStyle=orthogonalEdgeStyle;rounded=0;orthogonalLoop=1;jettySize=auto;html=1;exitX=0.5;exitY=1;exitDx=0;exitDy=0;entryX=0.5;entryY=0;entryDx=0;entryDy=0;fillColor=#d5e8d4;strokeColor=#82b366;" edge="1" parent="1" source="KQGJKNnOwOhQXYTlbLYk-74" target="KQGJKNnOwOhQXYTlbLYk-8">
          <mxGeometry relative="1" as="geometry" />
        </mxCell>
        <mxCell id="KQGJKNnOwOhQXYTlbLYk-74" value="&lt;span style=&quot;font-weight: normal;&quot;&gt;Ejecutar funcion&lt;br&gt;&lt;/span&gt;GoBottom()" style="whiteSpace=wrap;html=1;fontSize=9;fillColor=#d5e8d4;strokeColor=#82b366;rounded=1;fontStyle=1;" vertex="1" parent="1">
          <mxGeometry x="147.14" y="768.4899999999998" width="120" height="60" as="geometry" />
        </mxCell>
      </root>
    </mxGraphModel>
  </diagram>
</mxfile>
